<svg xmlns="http://www.w3.org/2000/svg" viewBox="0 0 588.2 331.85"><defs><style>.cls-1{fill:#fff;}.cls-2{fill:#f72d45;}.cls-3{fill:#f7bd77;}.cls-4{fill:#eaeaea;}.cls-5,.cls-6{fill:none;stroke:#ffce5c;stroke-linecap:round;stroke-width:2px;}.cls-5{stroke-linejoin:round;}.cls-6{stroke-miterlimit:10;}</style></defs><title>ugandanknuck2</title><g id="Lineart_Merged" data-name="Lineart Merged"><path class="cls-1" d="M348.2,159.39c6.24,2.51,9.44,6.55,10.78,11.1-.54.36-19.72,12.83-20.93-6.63A108.93,108.93,0,0,1,348.2,159.39Z" transform="translate(-6.68 -94.63)"/><path class="cls-1" d="M215.85,172.76a66.49,66.49,0,0,1-6,7c-15.74,15.67-22,.21-22,.21,7.15-6.18,14.39-8.59,20.93-8.45A24.28,24.28,0,0,1,215.85,172.76Z" transform="translate(-6.68 -94.63)"/><path class="cls-1" d="M215.85,172.76c9.3,3,16.1,11.34,17.31,20.21-19.36-.77-17.25,3.58-17.25,3.58s-.36,4.47,14.32,6.36h0a32.08,32.08,0,0,0-.85,5.94c-4.81-3.91-13.25-1-18.37,1.47a46.06,46.06,0,0,0-4.32,2.31,23.6,23.6,0,0,1-7.91-2.08h0a39.85,39.85,0,0,1-3.92-1.89s24.87-7,14.94-28.88A66.49,66.49,0,0,0,215.85,172.76Z" transform="translate(-6.68 -94.63)"/><path class="cls-1" d="M348.2,159.39a108.93,108.93,0,0,0-10.15,4.47c-13.82,6.93-33.93,20.79-6.69,33.47-5.88.58-12.07,2.25-17.28,6a155,155,0,0,0-19.51-11.67c-.18-.78-7.95-35.71,37.66-35C339,156.78,344.22,157.77,348.2,159.39Z" transform="translate(-6.68 -94.63)"/><path class="cls-1" d="M576.39,323.92s-4.26,1.28-5.95,3c.26,3.12,4,14.41,1.24,21.43-4.2-4.2-5.16-6.24-8.21-9.93,0,.31-.86,6.59-7.38,7.18-6.47,0-9.05-10-10-17.52-4.58-7.56-12.15-5.77-16.13-11.55-5.77-9.35,7.37-18.71,7.37-18.71s11.41-16.91,28.4-10.05c4,2.34,15.73,8.18,13.78,17.92,5.06,2.53,11.1,15,14.41,32.72C588.4,333.34,581.75,328,576.39,323.92Z" transform="translate(-6.68 -94.63)"/><path class="cls-1" d="M565.64,273.58c.58,6.43-4.29,8.38-4.29,8.38s4.19.19,4.34,5.84c-17-6.86-28.4,10.05-28.4,10.05s-3.78-1.59-2-5a7,7,0,0,1-6.57,0c-3.58-5.78,3.91-10.67,3.91-10.67,5.29-6,14.37-11.34,14.37-11.34S563.11,264.23,565.64,273.58Z" transform="translate(-6.68 -94.63)"/><path class="cls-2" d="M547,270.87s-9.08,5.29-14.37,11.34c-5.29-3-27.23-16.64-51.43-4.53,3,15.88,38.08,142.17-157.54,142.17S153,293.56,153,293.56s-25-14.37-56,12.85c-8.31-9.07-15.88-12.85-15.88-12.85S112,223.65,196,231c-5,45,0,54,0,54s21-55,24-55.5c-1,16.5,9,66.5,35,81.5-5.44-17.4-7-14-6-48,21,17,65,29,113,5-2,12-11,30-11,30s36.76-5.25,49-68.5C399,260,384,302,384,302s40.71-29.33,43.84-76.43c1-.13,53.63-7.09,81.36,5.43C537.18,243.64,547,270.87,547,270.87ZM242.69,321.69c59.9,134.11,144.64,13.67,138.24,0C304.13,378.84,242.69,321.69,242.69,321.69Z" transform="translate(-6.68 -94.63)"/><path class="cls-3" d="M229.38,208.86a32.08,32.08,0,0,1,.85-5.94h0c1.14.15,2.38.29,3.72.4,18.45,1.58,18.1-3.18,18.1-3.18s.47-6.38-18.89-7.16c18.64-17.13,43.65-10.09,61.41-1.33a155,155,0,0,1,19.51,11.67c5.21-3.73,11.4-5.4,17.28-6A64.89,64.89,0,0,1,352.65,199c38.87,4.47,32.8,21.82,32.8,21.82s-.28,8.86-18,13.28-53.4,32.93-86.6,29.06-49-26.84-49-26.84-9.65-1.23-11.88-6.84c-4.16-6-7.78-18.93-7.78-18.93l-1.21-.24C216.13,207.9,224.57,205,229.38,208.86Z" transform="translate(-6.68 -94.63)"/><path class="cls-1" d="M380.93,321.69c6.4,13.67-78.34,134.11-138.24,0C242.69,321.69,304.13,378.84,380.93,321.69Z" transform="translate(-6.68 -94.63)"/><path d="M359,170.49c3.65,12.36-6.34,28.53-6.34,28.53a64.89,64.89,0,0,0-21.29-1.69c-27.24-12.68-7.13-26.54,6.69-33.47,1.21,19.46,20.39,7,20.93,6.63Z" transform="translate(-6.68 -94.63)"/><path d="M252.05,200.13s.35,4.76-18.1,3.18c-1.34-.11-2.58-.25-3.72-.4-14.68-1.89-14.32-6.36-14.32-6.36s-2.11-4.35,17.25-3.58S252.05,200.13,252.05,200.13Z" transform="translate(-6.68 -94.63)"/><path class="cls-2" d="M294.57,191.64c-17.76-8.76-42.77-15.8-61.41,1.33-1.21-8.87-8-17.17-17.31-20.21a24.28,24.28,0,0,0-7.13-1.22c18.54-52,51.91-73.26,85.28-75.54,44-3,92,11,125,84,7.47,16.52,9.76,31.81,8.84,45.57C424.71,272.67,384,302,384,302s15-42,16-72.5c-12.24,63.25-49,68.5-49,68.5s9-18,11-30c-48,24-92,12-113-5-1,34,.56,30.6,6,48-26-15-36-65-35-81.5,2.23,5.61,11.88,6.84,11.88,6.84s15.77,23,49,26.84,68.9-24.63,86.6-29.06,18-13.28,18-13.28,6.07-17.35-32.8-21.82c0,0,10-16.17,6.34-28.53h0c-1.34-4.55-4.54-8.59-10.78-11.1-4-1.62-9.2-2.61-16-2.72C286.62,155.93,294.39,190.86,294.57,191.64Z" transform="translate(-6.68 -94.63)"/><path class="cls-2" d="M212.22,210.57s3.62,13,7.78,18.93c-3,.5-24,55.5-24,55.5s-5-9,0-54c.74-7.15,1.68-13.95,2.78-20.44a23.6,23.6,0,0,0,7.91,2.08,46.06,46.06,0,0,1,4.32-2.31Z" transform="translate(-6.68 -94.63)"/><path d="M209.8,179.78c9.93,21.9-14.94,28.88-14.94,28.88-9.8-5.37-19.36-15.78-7.07-28.67C187.79,180,194.06,195.45,209.8,179.78Z" transform="translate(-6.68 -94.63)"/><path class="cls-1" d="M101.58,313.51a4.28,4.28,0,0,1-3.76,5.5c-2.74.2-5,.67-5.65,1.3-15.52-9.31-25.42-6.79-25.42-6.79-2.13-7.57-.39-9.51,1.36-11.06-1-4.46-2-18,13-8.9,0,0,7.57,3.78,15.88,12.85C97,306.41,100,308.34,101.58,313.51Z" transform="translate(-6.68 -94.63)"/><path class="cls-1" d="M62.66,349l-.18-.16c-4.17-6.59-8.37-13.25-12.15-19.27a74.38,74.38,0,0,1,16.42-16s9.9-2.52,25.42,6.79c1.55,2.52,13,7.95,9.12,28.52-3.5,7-9.51,2.32-16.3,13.58-2.68,5.74-4.27,9.92-5.85,12.52s-3.23,3.69-6,3c-5.43-1.75-4.46-4.27-6.59-6-2.91,3.3-4.27,12.23-8,12C55.94,383.75,55.89,358.19,62.66,349Z" transform="translate(-6.68 -94.63)"/><path class="cls-4" d="M50.33,329.54c3.78,6,8,12.68,12.15,19.27l.18.16c-6.77,9.22-6.72,34.78-4.06,35,3.69.2,5-8.73,8-12,2.13,1.75,1.16,4.27,6.59,6,2.76.69,4.37-.32,6-3,3.38,5.22,6,9.24,7.44,11.22,7.59,10.63-40.11,39.33-40.11,39.33l.41-24.26.52-31.08.14-8.15L7.68,339.53c6.86-14.16,28.15-33.12,28.15-33.12S42.12,316.49,50.33,329.54Z" transform="translate(-6.68 -94.63)"/><path class="cls-4" d="M47.54,362l-.14,8.15-.52,31.08-.41,24.26s-29.77-56.65-38.79-86Z" transform="translate(-6.68 -94.63)"/><path class="cls-5" d="M537.29,297.85s11.41-16.91,28.4-10.05" transform="translate(-6.68 -94.63)"/><path class="cls-5" d="M532.64,282.21s-7.49,4.89-3.91,10.67a7,7,0,0,0,6.57,0c-1.79,3.38,2,5,2,5s-13.14,9.36-7.37,18.71c4,5.78,11.55,4,16.13,11.55,1,7.56,3.57,17.52,10,17.52,6.52-.59,7.34-6.87,7.38-7.18" transform="translate(-6.68 -94.63)"/><path class="cls-5" d="M547,270.87s16.1-6.64,18.63,2.71c.58,6.43-4.29,8.38-4.29,8.38s4.19.19,4.34,5.84c4,2.34,15.73,8.18,13.78,17.92,5.06,2.53,11.1,15,14.41,32.72-5.48-5.1-12.13-10.44-17.49-14.52-2.83-2.14-5.3-3.94-7-5.15-.2-8.76,5.45-10.91,5.45-10.91" transform="translate(-6.68 -94.63)"/><path class="cls-5" d="M576.39,323.92s-4.26,1.28-5.95,3c.26,3.12,4,14.41,1.24,21.43-4.2-4.2-5.16-6.24-8.21-9.93h0a92.14,92.14,0,0,0-7.38-7.79" transform="translate(-6.68 -94.63)"/><path class="cls-5" d="M198.78,210.56c-1.1,6.49-2,13.29-2.78,20.44-5,45,0,54,0,54s21-55,24-55.5c-1,16.5,9,66.5,35,81.5-5.44-17.4-7-14-6-48,21,17,65,29,113,5-2,12-11,30-11,30s36.76-5.25,49-68.5C399,260,384,302,384,302s40.71-29.33,43.84-76.43c.92-13.76-1.37-29-8.84-45.57-33-73-81-87-125-84-33.37,2.28-66.74,23.53-85.28,75.54" transform="translate(-6.68 -94.63)"/><path class="cls-5" d="M427.83,225.57h0c1-.13,53.63-7.09,81.36,5.43,28,12.64,37.81,39.87,37.81,39.87s-9.08,5.29-14.37,11.34c-5.29-3-27.23-16.64-51.43-4.53,3,15.88,38.08,142.17-157.54,142.17S153,293.56,153,293.56s-25-14.37-56,12.85c-8.31-9.07-15.88-12.85-15.88-12.85S112,223.65,196,231" transform="translate(-6.68 -94.63)"/><path class="cls-5" d="M359.79,223.52s-5.63-7.1-26.05-6.35-36.3,18.91-62.85,21.94-42.27-23.45-41.51-30.25a32.08,32.08,0,0,1,.85-5.94" transform="translate(-6.68 -94.63)"/><path class="cls-5" d="M359,170.49c3.65,12.36-6.34,28.53-6.34,28.53a64.89,64.89,0,0,0-21.29-1.69c-5.88.58-12.07,2.25-17.28,6a155,155,0,0,0-19.51-11.67c-17.76-8.76-42.77-15.8-61.41,1.33-1.21-8.87-8-17.17-17.31-20.21a24.28,24.28,0,0,0-7.13-1.22c-6.54-.14-13.78,2.27-20.93,8.45-12.29,12.89-2.73,23.3,7.07,28.67a39.85,39.85,0,0,0,3.92,1.89h0a23.6,23.6,0,0,0,7.91,2.08,46.06,46.06,0,0,1,4.32-2.31c5.12-2.43,13.56-5.38,18.37-1.47" transform="translate(-6.68 -94.63)"/><path class="cls-5" d="M294.57,191.65h0c-.18-.78-7.95-35.71,37.66-35,6.77.11,12,1.1,16,2.72,6.24,2.51,9.44,6.55,10.78,11.1" transform="translate(-6.68 -94.63)"/><path class="cls-5" d="M212.22,210.57s3.62,13,7.78,18.93c2.23,5.61,11.88,6.84,11.88,6.84s15.77,23,49,26.84,68.9-24.63,86.6-29.06,18-13.28,18-13.28,6.07-17.35-32.8-21.82" transform="translate(-6.68 -94.63)"/><path class="cls-5" d="M230.23,202.91c1.14.15,2.38.29,3.72.4,18.45,1.58,18.1-3.18,18.1-3.18s.47-6.38-18.89-7.16-17.25,3.58-17.25,3.58S215.55,201,230.23,202.91Z" transform="translate(-6.68 -94.63)"/><path class="cls-5" d="M348.2,159.39a108.93,108.93,0,0,0-10.15,4.47c-13.82,6.93-33.93,20.79-6.69,33.47" transform="translate(-6.68 -94.63)"/><path class="cls-5" d="M359,170.49h0c-.54.36-19.72,12.83-20.93-6.63" transform="translate(-6.68 -94.63)"/><path class="cls-5" d="M187.79,180s6.27,15.46,22-.21a66.49,66.49,0,0,0,6-7" transform="translate(-6.68 -94.63)"/><path class="cls-5" d="M194.86,208.66s24.87-7,14.94-28.88" transform="translate(-6.68 -94.63)"/><path class="cls-6" d="M63.07,348.44c10.86-.78,12,3.68,12,3.68" transform="translate(-6.68 -94.63)"/><path class="cls-5" d="M97,306.41s3,1.93,4.55,7.1a4.28,4.28,0,0,1-3.76,5.5c-2.74.2-5,.67-5.65,1.3,1.55,2.52,13,7.95,9.12,28.52-3.5,7-9.51,2.32-16.3,13.58-2.68,5.74-4.27,9.92-5.85,12.52s-3.23,3.69-6,3c-5.43-1.75-4.46-4.27-6.59-6-2.91,3.3-4.27,12.23-8,12-2.66-.19-2.71-25.75,4.06-35,.13-.19.27-.36.41-.53" transform="translate(-6.68 -94.63)"/><path class="cls-6" d="M50.33,329.54a74.38,74.38,0,0,1,16.42-16c-2.13-7.57-.39-9.51,1.36-11.06-1-4.46-2-18,13-8.9" transform="translate(-6.68 -94.63)"/><path class="cls-5" d="M242.69,321.69s61.44,57.15,138.24,0C387.33,335.36,302.59,455.8,242.69,321.69Z" transform="translate(-6.68 -94.63)"/><line class="cls-5" x1="40.2" y1="306.59" x2="40.72" y2="275.51"/><path class="cls-5" d="M7.68,339.53c9,29.3,38.79,86,38.79,86" transform="translate(-6.68 -94.63)"/><path class="cls-5" d="M50.33,329.54c-8.21-13.05-14.5-23.13-14.5-23.13s-21.29,19-28.15,33.12L47.54,362l-.14,8.15" transform="translate(-6.68 -94.63)"/><path class="cls-5" d="M62.48,348.81c-4.17-6.59-8.37-13.25-12.15-19.27" transform="translate(-6.68 -94.63)"/><path class="cls-5" d="M46.88,401.22l-.41,24.26s47.7-28.7,40.11-39.33c-1.41-2-4.06-6-7.44-11.22" transform="translate(-6.68 -94.63)"/><path class="cls-5" d="M66.75,313.52s9.9-2.52,25.42,6.79" transform="translate(-6.68 -94.63)"/></g></svg>